<?xml version='1.0' encoding='utf-8'?>
<svg xmlns="http://www.w3.org/2000/svg" xmlns:xlink="http://www.w3.org/1999/xlink" width="170" height="170" viewBox="0 0 170 170" version="1.1" id="svg1" xml:space="preserve"><defs id="defs1"><linearGradient id="swatch22"><stop style="stop-color:#ffffff;stop-opacity:1;" offset="0" id="stop22" /></linearGradient><linearGradient id="swatch20"><stop style="stop-color:#ffffff;stop-opacity:1;" offset="0" id="stop20" /></linearGradient><linearGradient xlink:href="#swatch20" id="linearGradient334" gradientUnits="userSpaceOnUse" gradientTransform="matrix(0.167232,0,0,0.167232,-102.90955,107.69874)" x1="468.20203" y1="94.769966" x2="476.40979" y2="94.769966" /><linearGradient xlink:href="#swatch20" id="linearGradient335" gradientUnits="userSpaceOnUse" gradientTransform="matrix(0.12600611,-0.05806074,0.05806074,0.12600611,-40.71799,138.51332)" x1="375.34604" y1="108.39876" x2="511.85526" y2="108.39876" /><linearGradient xlink:href="#swatch20" id="linearGradient336" gradientUnits="userSpaceOnUse" gradientTransform="matrix(0.167232,0,0,0.167232,100.3943,108.04373)" x1="-414.0834" y1="94.769966" x2="-405.87564" y2="94.769966" /><linearGradient xlink:href="#swatch22" id="linearGradient342" gradientUnits="userSpaceOnUse" x1="137.40587" y1="135.98956" x2="182.92969" y2="135.98956" /><linearGradient xlink:href="#swatch20" id="linearGradient345" gradientUnits="userSpaceOnUse" gradientTransform="matrix(0.26300609,0,0,0.26300609,-49.426477,1.9224737)" x1="372.71011" y1="181.26291" x2="441.35294" y2="181.26291" /><linearGradient xlink:href="#swatch20" id="linearGradient347" gradientUnits="userSpaceOnUse" gradientTransform="matrix(-0.12203044,0.23298235,0.23298235,0.12203044,82.333642,-76.162469)" x1="372.71011" y1="181.26291" x2="441.35294" y2="181.26291" /></defs><g transform="translate(1820.2825,-540.2671) scale(3.837471)"><g id="layer1"><g id="g334" transform="matrix(1.3848367,0,0,1.3074118,-487.67093,-10.827972)"><circle style="fill:url(#linearGradient334);fill-opacity:1;stroke:none;stroke-width:0.0407237;stroke-opacity:1" id="circle326" cx="-23.924917" cy="123.54731" r="0.68629837" transform="rotate(-22.091225)" /><path id="path326" style="fill:url(#linearGradient335);stroke:none;stroke-width:0.55496;stroke-linecap:round;stroke-dasharray:none;stroke-opacity:1" d="m 20.949987,117.56888 c -1.191148,0.0493 -2.331256,0.30841 -3.321761,0.76481 -3.899581,1.79685 -6.752072,7.71514 -4.32015,12.99301 0.878733,1.90707 2.011473,3.26136 3.348633,4.09846 v -4.99815 -0.01 c 1.49e-4,-0.002 3.22e-4,-0.004 5.17e-4,-0.006 1.35e-4,-0.0102 8.25e-4,-0.0204 0.0021,-0.0305 1.7e-4,-6.9e-4 3.42e-4,-0.001 5.17e-4,-0.002 0.0012,-0.01 0.003,-0.0191 0.0052,-0.0284 0.0027,-0.0103 0.006,-0.0205 0.0098,-0.0305 5e-4,-0.002 0.001,-0.003 0.0015,-0.005 0.004,-0.0104 0.0087,-0.0206 0.01395,-0.0305 5.08e-4,-0.001 0.001,-0.002 0.0016,-0.004 0.0062,-0.0108 0.0131,-0.0211 0.02067,-0.031 0.0038,-0.005 0.0078,-0.01 0.01189,-0.0145 0.0046,-0.006 0.0094,-0.0109 0.01447,-0.016 0.0083,-0.008 0.01708,-0.0164 0.02636,-0.0238 3.44e-4,-1.7e-4 6.89e-4,-3.5e-4 0.001,-5.2e-4 0.0097,-0.008 0.01988,-0.0144 0.03049,-0.0207 l 0.0088,-0.005 c 1.72e-4,-1.7e-4 3.44e-4,-3.5e-4 5.17e-4,-5.2e-4 l 8.047054,-4.64519 c -0.733099,-8.2e-4 -1.439959,-0.42856 -1.772502,-1.15032 -0.4529,-0.98288 -0.03975,-2.13891 0.922425,-2.58227 0.240547,-0.11083 0.492662,-0.16661 0.74259,-0.1726 0.749784,-0.018 1.479871,0.4121 1.819527,1.14929 0.279946,0.60753 0.22894,1.28149 -0.07803,1.81229 l 0.889351,-0.51315 c 0.08683,-0.0501 0.193776,-0.0501 0.280603,0 l 3.644222,2.10375 c -0.132148,-0.97564 -0.435607,-1.99559 -0.921907,-3.05098 -1.823937,-3.9584 -5.855955,-5.69793 -9.429399,-5.55005 z m -4.115511,7.69411 c 0.749782,-0.018 1.47987,0.41209 1.819527,1.14928 0.452897,0.98287 0.04027,2.13943 -0.921908,2.58279 -0.962196,0.44339 -2.109748,0.006 -2.562634,-0.9772 -0.452911,-0.98289 -0.03979,-2.13893 0.922425,-2.58227 0.240546,-0.11084 0.492662,-0.16662 0.74259,-0.1726 z m 0.383439,5.63996 v 4.83743 c 2.172709,1.08605 4.827494,0.92516 7.777303,-0.34675 l -5.478219,-3.16311 z" /><circle style="fill:url(#linearGradient336);fill-opacity:1;stroke:none;stroke-width:0.0407237;stroke-opacity:1" id="circle327" cx="31.83259" cy="123.89229" transform="matrix(-0.92658624,0.37608236,0.37608236,0.92658624,0,0)" r="0.68629837" /><g id="g333" transform="matrix(1.0673294,0,0,1.0673294,-44.033938,85.995226)"><g id="g331" transform="matrix(0.26300609,0,0,0.26300609,24.911941,5.8535958)"><g id="path327" style="opacity:1;fill:#ffb91b;fill-opacity:0.315789" transform="translate(-0.11781686,-0.11781698)"><path id="path358" style="baseline-shift:baseline;display:inline;overflow:visible;vector-effect:none;fill:#ffb91b;fill-opacity:1;stroke-linecap:round;stroke-linejoin:round;enable-background:accumulate;stop-color:#000000;stop-opacity:1" d="m 160.16722,115.38652 -13.5729,7.83668 35.68569,20.60326 0.30927,-0.17857 c 1.47491,-2.57847 3.35427,-4.97622 5.67731,-7.06718 1.11564,-1.00418 2.17227,-2.09042 3.08534,-3.19027 l -10.98645,-6.34187 -0.16936,0.1307 -2.12255,-1.4543 z m -14.61668,8.43865 -6.49467,3.74989 35.68753,20.60327 6.49283,-3.7499 z m -7.53661,4.35187 -13.53424,7.81274 35.68753,20.60326 13.53055,-7.81274 z m 55.10893,6.23694 c -1.04225,1.28504 -2.25028,2.51868 -3.51794,3.65969 -1.13502,1.02162 -2.15854,2.12643 -3.07245,3.29704 l 9.32044,-5.38093 z" /></g><g id="path328" style="opacity:1;fill:#d29100;fill-opacity:1"><path id="path354" style="baseline-shift:baseline;display:inline;overflow:visible;vector-effect:none;fill:#d29100;fill-opacity:1;stroke-linecap:round;stroke-linejoin:round;enable-background:accumulate;stop-color:#000000;stop-opacity:1" d="m 196.85435,137.72022 -13.01879,7.51452 c -2.4e-4,4.7e-4 2.5e-4,0.001 0,0.002 -0.19329,0.36321 -0.37887,0.72894 -0.55594,1.09901 v 20.11543 c 4.3e-4,0.17922 -0.0951,0.34496 -0.25037,0.43445 l -1.89243,1.09165 c 0.63923,2.34872 2.07293,3.53085 3.3449,3.75173 1.30603,0.22679 2.60278,-0.37308 3.34858,-2.47968 0.31604,-0.89289 0.3696,-2.45784 0.28166,-4.30032 -0.088,-1.84248 -0.28892,-3.9666 -0.30375,-6.12649 -0.0146,-2.15989 0.14994,-4.3594 0.84681,-6.37133 0.69687,-2.01192 -0.0926,-2.89732 3.40565,-6.59591 1.2217,-1.29167 3.03322,-3.04066 4.2635,-4.15673 z m 0.0589,5.95712 c -0.97148,0.76825 -2.84109,2.89895 -3.78304,4.20276 -1.12097,1.55162 -2.00386,3.55309 -2.58276,5.22445 -0.5789,1.67136 -0.75557,3.65849 -0.74188,5.70308 0.0139,2.0446 0.21257,4.13548 0.30374,6.04549 0.0912,1.91002 0.10834,3.62989 -0.39947,5.0643 -0.98368,2.77852 -3.33091,4.16952 -5.5779,3.77935 -2.05953,-0.35762 -3.89951,-2.05154 -4.77527,-4.6906 l -3.86404,2.22932 c -0.33342,0.19353 -0.75118,-0.0471 -0.75108,-0.43261 V 150.4868 l -13.5729,7.83668 v 41.2102 l 35.68569,-20.60326 z m -16.1483,3.33198 -5.02196,2.8994 v 20.02706 l 3.33754,-1.92741 c -1.53242,-6.43305 -1.17456,-14.11929 1.68442,-20.99905 z m 1.51505,1.66969 c -2.27661,6.03136 -2.59825,12.65869 -1.38435,18.28189 l 1.38435,-0.79894 z" /></g><g id="path329" style="opacity:1"><path id="path352" style="baseline-shift:baseline;display:inline;overflow:visible;vector-effect:none;fill:#ffb91b;fill-opacity:1;stroke-linecap:round;stroke-linejoin:round;enable-background:accumulate;stop-color:#000000;stop-opacity:1" d="m 123.48009,137.72022 v 17.36697 c 0.0572,0.5613 0.0555,1.08317 0,1.56476 v 10.87415 c 1.56617,-0.32823 3.13786,-0.90591 4.44391,-1.73044 16.01627,-10.11181 24.34925,-8.33904 27.7809,-5.81354 2.57392,1.89426 3.42132,4.64751 2.68034,6.86101 -0.74098,2.21349 -3.10506,3.74096 -6.05101,3.31912 -4.49531,-0.64371 -9.66796,1.37654 -15.47638,5.90374 -3.1144,2.42744 -6.64694,3.94863 -10.2464,4.67219 l 32.55617,18.7955 v -41.20836 z m 24.65874,22.29688 c -4.16442,0.14207 -10.33324,1.90137 -19.14527,7.46482 -1.67379,1.05669 -3.60077,1.76162 -5.51347,2.11702 v 9.33148 l 0.27981,0.162 h 0.002 c 4.14228,-0.37858 8.31677,-1.83662 11.8627,-4.60039 6.03389,-4.70294 11.71113,-7.06118 16.99143,-6.30505 2.18396,0.31272 3.4349,-0.66222 3.87692,-1.98264 0.44202,-1.32042 0.0462,-3.12373 -1.97528,-4.61144 -1.11263,-0.81883 -3.13969,-1.6863 -6.37869,-1.5758 z" /></g><g id="path330" style="opacity:1"><path id="path356" style="baseline-shift:baseline;display:inline;overflow:visible;vector-effect:none;fill:url(#linearGradient342);stroke-linecap:round;stroke-linejoin:round;enable-background:accumulate;stop-color:#000000;stop-opacity:1" d="m 145.094,123.51222 -6.53701,3.77383 36.93565,21.32488 a 0.50005,0.50005 0 0 1 0.0534,0.0368 0.50005,0.50005 0 0 1 0.002,0 0.50005,0.50005 0 0 1 0.0479,0.0423 0.50005,0.50005 0 0 1 0.10862,0.16384 0.50005,0.50005 0 0 1 0.0386,0.19146 v 20.89043 l 3.33754,-1.92741 c -1.70493,-7.15722 -1.07133,-15.86413 2.74477,-23.28728 z m 37.18601,25.16683 c -2.27661,6.03136 -2.59825,12.65869 -1.38435,18.28189 l 1.38435,-0.79894 z" /></g></g><g id="path332" style="opacity:1"><path style="baseline-shift:baseline;display:inline;overflow:visible;vector-effect:none;fill:url(#linearGradient345);stroke-linecap:round;enable-background:accumulate;stop-color:#000000;stop-opacity:1" d="m 56.873278,46.637613 c -1.236784,0.989838 -1.290866,1.175 -1.455197,2.05487 -0.37797,2.023752 1.645237,2.019998 3.279265,0.988407 4.166293,-2.630373 6.22387,-2.118266 7.009577,-1.54003 1.20863,0.889477 0.656641,2.400218 -0.692556,2.207022 -1.285523,-0.184084 -2.712953,0.39176 -4.270252,1.605552 -4.708022,3.669531 -13.315903,-0.955056 -6.138609,-7.382103 1.012481,1.284073 1.297385,1.651731 2.267772,2.066282 z" id="path350" /></g><g id="path333" style="opacity:1"><path id="path348" style="baseline-shift:baseline;display:inline;overflow:visible;vector-effect:none;fill:url(#linearGradient347);stroke-linecap:round;enable-background:accumulate;stop-color:#000000;stop-opacity:1" d="m 74.848425,35.185174 c -0.372433,-0.01165 -0.773443,0.01512 -1.202183,0.08618 -0.808591,0.134025 -1.733914,0.460221 -2.741831,0.947513 0.0886,0.556715 0.188389,1.046792 0.177689,1.599683 l 1.185238,0.81243 c 0.292173,-0.228967 0.687421,-0.557202 1.224939,-0.80081 0.609559,-0.276258 1.366206,-0.415553 2.099343,-0.03728 0.455481,0.235011 0.755492,0.560554 0.885055,0.937345 0.129565,0.376791 0.08808,0.781034 -0.05084,1.174102 -0.27784,0.786135 -0.940147,1.568681 -1.677634,2.232488 -2.271475,2.044542 -2.823199,5.361571 -2.209248,7.845422 0.160959,0.651187 0.549305,0.977433 0.892801,1.037083 0.343495,0.05965 0.684549,-0.09812 0.880698,-0.652171 0.08312,-0.234835 0.09721,-0.646428 0.07408,-1.131011 -0.02313,-0.484583 -0.07599,-1.043239 -0.07989,-1.611304 -0.0039,-0.568065 0.03944,-1.14655 0.222716,-1.675698 0.18328,-0.529149 0.649048,-1.393471 1.09712,-1.843219 2.291925,-2.300498 3.623597,-4.302616 2.775722,-6.496535 -0.423938,-1.096959 -1.257929,-1.947289 -2.521535,-2.279453 -0.315901,-0.08304 -0.659808,-0.133111 -1.032242,-0.144765 z" /></g></g></g></g></g></svg>